<svg xmlns="http://www.w3.org/2000/svg" fill="none" viewBox="0 0 908 174"><g fill="#303136" clip-path="url(#a)"><path fill-rule="evenodd" d="M174.553 86.796C174.553 38.86 135.669 0 87.706 0 39.742 0 .859 38.86.859 86.796c0 47.938 38.883 86.796 86.847 86.796s86.847-38.858 86.847-86.796M71.899 38.576c-.683 1.34-.683 3.092-.683 6.599v19.872c0 .876 0 1.314.11 1.719.099.359.26.697.477 1 .244.34.584.616 1.264 1.169l5.03 4.083c.82.666 1.23.999 1.379 1.4.13.35.13.737 0 1.089-.149.4-.559.733-1.379 1.399l-5.03 4.083c-.68.552-1.02.829-1.264 1.17-.217.302-.379.64-.477 1-.11.404-.11.842-.11 1.718v43.54c0 3.506 0 5.259.683 6.598a6.26 6.26 0 0 0 2.737 2.736c1.34.683 3.095.683 6.603.683h12.934c3.508 0 5.262 0 6.602-.683a6.26 6.26 0 0 0 2.738-2.736c.683-1.339.683-3.092.683-6.598v-19.873c0-.876 0-1.314-.111-1.718a3.1 3.1 0 0 0-.476-1c-.245-.341-.585-.617-1.265-1.169l-5.03-4.084c-.82-.665-1.23-.998-1.378-1.399a1.56 1.56 0 0 1 0-1.09c.148-.4.558-.733 1.378-1.398l5.03-4.084c.68-.552 1.02-.828 1.265-1.17.217-.302.378-.64.476-.999.111-.405.111-.842.111-1.718v-43.54c0-3.507 0-5.26-.683-6.599a6.26 6.26 0 0 0-2.738-2.736c-1.34-.682-3.094-.682-6.602-.682H81.239c-3.508 0-5.263 0-6.603.682a6.26 6.26 0 0 0-2.737 2.736" clip-rule="evenodd"/><path d="M244.271 138.719c.861 0 1.558-.697 1.558-1.557V35.206c0-.86-.697-1.557-1.558-1.557h-15.034c-.557 0-1.067.302-1.373.767-3.447 5.238-9.857 7.877-18.641 8.152-.86.026-1.559.72-1.559 1.58v15.25c0 .86.697 1.557 1.558 1.557h12.15c.86 0 1.558.697 1.558 1.557v74.65c0 .86.697 1.557 1.558 1.557zm60.021-83.992c8.11 0 14.63 4.312 14.63 15.17 0 10.539-6.52 15.17-14.63 15.17H286.64v-30.34zm0 49.98c23.853 0 37.688-14.53 37.688-35.449 0-19.8-13.835-34.331-37.688-34.331h-38.834c-.861 0-1.558.697-1.558 1.557v100.678c0 .86.697 1.557 1.558 1.557h19.624c.86 0 1.558-.697 1.558-1.557v-30.898c0-.86.698-1.557 1.558-1.557zm72.959 19.322c-6.679 0-10.813-3.034-10.813-8.463 0-4.791 2.862-7.984 9.7-7.984h18.606v1.596c0 9.262-7.951 14.851-17.493 14.851m19.242 13.133c0 .86.698 1.557 1.558 1.557h17.08c.861 0 1.558-.697 1.558-1.557v-45.07c0-21.716-12.245-34.33-34.349-34.33-16.412 0-28.977 8.764-34.129 22.854-.309.846.204 1.758 1.08 1.973l17.208 4.218c.778.19 1.568-.241 1.871-.982 2.613-6.392 6.964-10.18 13.97-10.18 7.315 0 12.404 4.79 12.404 13.414v1.117c0 2.396-.795 3.354-3.658 3.354h-19.878c-16.538 0-26.557 8.782-26.557 22.674 0 14.851 11.45 24.432 27.352 24.432 8.002 0 15.69-2.63 21.108-8.486 1.065-1.151 3.382-.449 3.382 1.119zm62.506-12.495c-7.727 0-13.372-3.207-16.155-9.101-.337-.715-1.121-1.131-1.889-.937l-16.085 4.072c-.827.209-1.336 1.047-1.09 1.864 4.072 13.524 17.693 20.071 34.424 20.071 21.469 0 33.713-11.018 33.713-26.028 0-29.062-45.958-19.162-45.958-33.533 0-4.79 3.976-7.825 11.132-7.825 7.122 0 11.891 3.893 14.177 9.861.283.74 1.043 1.205 1.822 1.058l16.417-3.108c.877-.166 1.439-1.037 1.186-1.893-3.766-12.715-14.349-21.407-33.443-21.407-20.991 0-32.123 11.178-32.123 25.23 0 30.02 46.117 21.078 46.117 33.533 0 4.95-4.134 8.143-12.245 8.143m71.443 0c-7.728 0-13.372-3.207-16.155-9.101-.338-.715-1.122-1.131-1.889-.937l-16.085 4.072c-.827.209-1.336 1.047-1.09 1.864 4.072 13.524 17.692 20.071 34.424 20.071 21.468 0 33.713-11.018 33.713-26.028 0-29.062-45.958-19.162-45.958-33.533 0-4.79 3.976-7.825 11.132-7.825 7.122 0 11.89 3.893 14.176 9.861.284.74 1.043 1.205 1.823 1.058l16.416-3.108c.878-.166 1.44-1.037 1.186-1.893-3.765-12.715-14.349-21.407-33.442-21.407-20.991 0-32.123 11.178-32.123 25.23 0 30.02 46.117 21.078 46.117 33.533 0 4.95-4.135 8.143-12.245 8.143m53.021 12.863c.17.698.795 1.189 1.514 1.189h24.734c.723 0 1.351-.497 1.517-1.2l12.598-53.57 12.599 53.57c.165.703.793 1.2 1.517 1.2h25.532c.717 0 1.342-.489 1.513-1.186l18.636-75.928a1.557 1.557 0 0 0-1.513-1.928h-17.577c-.739 0-1.376.519-1.526 1.242l-12.465 60.235-15.443-60.306a1.56 1.56 0 0 0-1.509-1.17h-19.664c-.722 0-1.349.495-1.516 1.196l-14.346 60.28-12.308-60.231a1.56 1.56 0 0 0-1.526-1.246h-17.737c-1.01 0-1.753.945-1.514 1.925zm142.175 3.106c23.853 0 40.233-18.523 40.233-41.358 0-22.994-16.38-41.517-40.233-41.517-23.695 0-40.233 18.523-40.233 41.517 0 22.835 16.538 41.358 40.233 41.358m0-19.002c-9.86 0-17.493-8.304-17.493-22.356s7.633-22.515 17.493-22.515 17.651 8.463 17.651 22.515-7.792 22.356-17.651 22.356m71.599-24.751c0-13.573 6.838-16.766 17.333-16.766 2.012 0 4.223.2 6.318.599.888.169 1.768-.398 1.925-1.287l3.329-18.805c.117-.66-.199-1.33-.816-1.593-1.913-.815-4.279-1.27-7.098-1.27-10.655 0-18.924 6.228-22.899 18.842V61.235c0-.86-.698-1.557-1.558-1.557h-17.24c-.86 0-1.557.697-1.557 1.557v75.928c0 .86.697 1.557 1.557 1.557h19.148c.86 0 1.558-.697 1.558-1.557zm70.051 25.23c-11.45 0-17.493-9.422-17.493-22.835s6.043-22.994 17.493-22.994 17.493 9.581 17.493 22.994-6.043 22.835-17.493 22.835m18.765 15.049c0 .86.697 1.557 1.558 1.557h17.875c.86 0 1.558-.697 1.558-1.557V36.716c0-.86-.698-1.557-1.558-1.557h-18.511c-.861 0-1.558.697-1.558 1.557v33.98c-4.93-9.262-13.199-12.935-23.695-12.935-20.514 0-34.508 17.884-34.508 41.517s13.994 41.358 34.508 41.358c11.132 0 19.719-4.472 24.331-15.969z"/></g><defs><clipPath id="a"><path fill="#fff" d="M0 0h908v174H0z"/></clipPath></defs></svg>